<svg width="109" height="20" viewBox="0 0 109 20" fill="none" xmlns="http://www.w3.org/2000/svg">
<path d="M37.7749 0.00329335C42.3041 0.00268277 46.8326 0.00329345 51.3611 0.00268287C52.8688 -0.022351 54.374 0.130905 55.8664 0.333008C57.5744 0.592506 59.3031 0.970456 60.8267 1.81672C61.7017 2.30397 62.4925 2.97561 63.0207 3.83409C63.4476 4.51245 63.69 5.2946 63.7908 6.08714C63.9269 7.14589 63.8066 8.22174 63.5801 9.25912C63.2167 10.8436 62.6635 12.4006 61.7964 13.7823C61.0129 15.0364 59.9687 16.13 58.7395 16.9543C57.1915 18.0051 55.4133 18.6664 53.6077 19.1194C52.1269 19.4845 50.6161 19.7239 49.0981 19.8668C48.1876 19.9828 47.2686 19.9718 46.3532 19.9993C43.813 19.9999 41.2727 20.0072 38.7337 19.9584C37.4214 19.9358 36.0926 19.962 34.8023 19.683C34.2161 19.5493 33.5768 19.2769 33.3179 18.6926C33.0345 18.0503 33.1854 17.3261 33.3508 16.6734C34.1789 13.3592 35.0735 10.0614 35.9516 6.76061C38.9749 5.98151 42 5.20973 45.0245 4.43612C44.2758 7.19351 43.587 9.96739 42.8695 12.7327C42.6094 13.7805 42.3108 14.8191 42.0904 15.876C42.0366 16.1379 41.9872 16.4982 42.2583 16.66C42.5972 16.8352 42.9941 16.7852 43.3623 16.7943C43.8905 16.8194 44.4193 16.8065 44.9482 16.8078C45.927 16.7583 46.912 16.8554 47.886 16.7174C48.9912 16.5763 50.0739 16.1959 50.9941 15.5628C52.4371 14.5889 53.4251 13.0716 54.0437 11.4682C54.4443 10.4015 54.7661 9.2927 54.8601 8.15335C54.9889 7.13307 54.9004 6.06211 54.4833 5.11387C54.1322 4.31401 53.4733 3.65519 52.6673 3.3157C52.064 3.0556 51.4045 2.9402 50.7499 2.93287C49.1292 2.92615 47.5129 3.07697 45.8995 3.21435C42.8158 3.52391 39.7339 3.85241 36.6507 4.16747C37.0232 2.779 37.3994 1.39115 37.7749 0.00329335Z" fill="#E4002B"/>
<path d="M58.9105 0.00208569C65.252 0.00391743 71.5941 0.00208548 77.9356 0.00330665C78.0358 1.00466 77.7995 2.07868 77.1082 2.83702C76.3046 3.72908 75.1206 4.15649 73.9659 4.35798C73.1171 4.51918 72.2512 4.46789 71.3932 4.47521C69.085 4.47521 66.7768 4.47521 64.4685 4.47521C64.0185 3.05439 62.9542 1.89184 61.6785 1.15303C60.8169 0.638313 59.8692 0.287228 58.9105 0.00208569Z" fill="#E4002B"/>
<path d="M79.778 1.65493C80.9034 0.71891 82.3011 0.0362781 83.7856 0.00269604C89.5421 0.0039172 95.2987 0.0014749 101.055 0.00391723C101.11 0.724405 101.044 1.47603 100.709 2.12752C100.333 2.89991 99.6336 3.46714 98.8654 3.8225C97.6887 4.36958 96.3697 4.51734 95.0843 4.47521C93.2103 4.47644 91.3368 4.47338 89.4627 4.47705C88.3532 4.55032 87.2559 4.94231 86.3845 5.63898C85.5913 6.27399 84.977 7.11782 84.5697 8.04529C83.9548 9.29821 83.6623 10.6861 83.5346 12.069C83.4888 12.7388 83.4278 13.427 83.6201 14.0815C83.8363 14.9229 84.4769 15.6263 85.2817 15.9456C85.8105 16.1825 86.4016 16.1667 86.9671 16.2289C90.7341 16.5025 94.5176 16.3193 98.2768 16.011C97.983 17.1082 97.3785 18.1376 96.4815 18.8471C95.8653 19.3307 95.135 19.6915 94.3583 19.8131C89.9598 19.8198 85.5614 19.8137 81.1623 19.8161C80.5449 19.8088 79.9239 19.846 79.3108 19.7526C78.244 19.6103 77.1931 19.1695 76.4322 18.3941C75.6512 17.6308 75.1817 16.6044 74.924 15.5555C74.568 14.0693 74.5851 12.5172 74.7994 11.0115C75.1188 8.72853 76.0042 6.54936 77.2389 4.61137C77.9436 3.5166 78.7735 2.4896 79.778 1.65493Z" fill="#E4002B"/>
<path d="M64.6627 8.41348C66.4574 8.42508 68.2509 8.3915 70.0456 8.39822C71.4421 8.39883 72.8386 8.39699 74.2352 8.39944C73.9421 9.5107 73.3259 10.5524 72.413 11.2637C71.7969 11.7405 71.0678 12.0977 70.2935 12.2119C68.0475 12.2174 65.8016 12.2131 63.5557 12.2144C64.0741 10.9969 64.4374 9.71646 64.6627 8.41348Z" fill="#E4002B"/>
<path d="M66.5069 16.0305C68.9556 16.0079 71.4048 16.0159 73.8535 16.0159C73.5384 17.1949 72.8588 18.3013 71.8482 19.0059C71.2717 19.4046 70.6153 19.7178 69.9173 19.8143C64.6756 19.8186 59.4344 19.8131 54.1927 19.8173C55.7712 19.3637 57.3247 18.7763 58.7273 17.9111C59.5804 17.3891 60.3724 16.765 61.0691 16.0476C62.8809 16.0104 64.6939 16.0397 66.5069 16.0305Z" fill="#E4002B"/>
<path d="M102.457 0.00331701C103.23 0.00270643 104.003 0.00270653 104.777 0.00270653C104.776 0.119938 104.776 0.23656 104.777 0.353181C104.461 0.354402 104.146 0.353181 103.831 0.354402C103.831 1.27516 103.831 2.19592 103.83 3.11607C103.686 3.11668 103.545 3.11668 103.404 3.11668C103.402 2.19592 103.404 1.27516 103.403 0.354402C103.087 0.353181 102.772 0.354402 102.457 0.353181C102.455 0.23656 102.456 0.119938 102.457 0.00331701Z" fill="#0A0A0A"/>
<path d="M105.24 0.00209618C105.416 0.00270676 105.592 0.00270655 105.77 0.00331714C106.059 0.848974 106.4 1.68059 106.611 2.55128C106.839 1.67998 107.19 0.848974 107.493 0.00270666C107.669 0.00270666 107.847 0.00270676 108.025 0.00209618C108.08 1.0407 108.155 2.07808 108.215 3.11668C108.077 3.11668 107.939 3.11668 107.803 3.11668C107.763 2.2234 107.693 1.33072 107.675 0.43622C107.411 1.34049 107.057 2.21485 106.742 3.10202C106.635 3.10141 106.529 3.10141 106.425 3.1008C106.124 2.22706 105.815 1.35576 105.562 0.466139C105.545 1.35087 105.475 2.23317 105.423 3.11607C105.289 3.11668 105.156 3.11668 105.024 3.11668C105.096 2.07869 105.172 1.0407 105.24 0.00209618Z" fill="#0A0A0A"/>
<path d="M5.23382 0.0644032C9.14742 0.0619609 13.0616 0.066235 16.9752 0.0625715C17.4308 3.0819 17.8802 6.10184 18.3382 9.12057C19.8153 6.9878 21.2888 4.85137 22.7666 2.718C23.2484 2.0317 23.8639 1.44737 24.5356 0.947916C24.8818 0.68964 25.2708 0.485095 25.6897 0.373969C26.69 0.0973749 27.736 0.0882161 28.7661 0.0631822C31.2276 0.0668457 33.6891 0.0589081 36.1506 0.0674563C34.4121 6.6819 32.662 13.2939 30.9187 19.9071C28.1372 19.9071 25.3563 19.9096 22.5754 19.9065C24.0764 14.918 25.5896 9.93325 27.0936 4.9454C23.6349 9.92898 20.1903 14.9223 16.7347 19.9077C15.9213 19.9077 15.1085 19.9077 14.2951 19.9083C13.6045 19.9035 12.901 19.6995 12.3649 19.2532C11.8764 18.8471 11.5283 18.2958 11.2908 17.7121C10.9739 16.9385 10.8096 16.1117 10.7076 15.285C10.4499 13.0729 10.1916 10.8613 9.93332 8.64981C9.76478 7.38773 9.62556 6.12199 9.48328 4.85687C8.88423 7.20639 8.23818 9.5437 7.62937 11.8902C6.92591 14.5627 6.22428 17.2352 5.5196 19.9071C3.67973 19.9083 1.83987 19.9083 0 19.9071C1.74094 13.2921 3.49165 6.67946 5.23382 0.0644032Z" fill="#0A0A0A"/>
</svg>
